<svg id="visual" viewBox="0 0 900 75" width="100%" height="100%" xmlns="http://www.w3.org/2000/svg" xmlns:xlink="http://www.w3.org/1999/xlink" version="1.1"><rect width="900" height="75" fill="#fff"></rect><g><g transform="translate(714 42)"><path d="M0 -13.2L11.5 -6.6L11.5 6.6L0 13.2L-11.5 6.6L-11.5 -6.6Z" fill="none" stroke="#0057A3" stroke-width="2"></path></g><g transform="translate(875 23)"><path d="M0 -8L6.9 -4L6.9 4L0 8L-6.9 4L-6.9 -4Z" fill="none" stroke="#0057A3" stroke-width="2"></path></g><g transform="translate(593 47)"><path d="M0 -9L7.8 -4.5L7.8 4.5L0 9L-7.8 4.5L-7.8 -4.5Z" fill="none" stroke="#0057A3" stroke-width="2"></path></g><g transform="translate(764 27)"><path d="M0 -12L10.4 -6L10.4 6L0 12L-10.4 6L-10.4 -6Z" stroke="#0057A3" fill="none" stroke-width="2"></path></g><g transform="translate(408 60)"><path d="M0 -9L7.8 -4.5L7.8 4.5L0 9L-7.8 4.5L-7.8 -4.5Z" stroke="#0057A3" fill="none" stroke-width="2"></path></g><g transform="translate(61 32)"><path d="M0 -12L10.4 -6L10.4 6L0 12L-10.4 6L-10.4 -6Z" stroke="#0057A3" fill="none" stroke-width="2"></path></g><g transform="translate(684 31)"><path d="M0 -8L6.9 -4L6.9 4L0 8L-6.9 4L-6.9 -4Z" stroke="#0057A3" fill="none" stroke-width="2"></path></g><g transform="translate(814 57)"><path d="M0 -12L10.4 -6L10.4 6L0 12L-10.4 6L-10.4 -6Z" stroke="#0057A3" fill="none" stroke-width="2"></path></g><g transform="translate(265 51)"><path d="M0 -9L7.8 -4.5L7.8 4.5L0 9L-7.8 4.5L-7.8 -4.5Z" stroke="#0057A3" fill="none" stroke-width="2"></path></g><g transform="translate(319 24)"><path d="M0 -10L8.7 -5L8.7 5L0 10L-8.7 5L-8.7 -5Z" stroke="#0057A3" fill="none" stroke-width="2"></path></g><g transform="translate(813 17)"><path d="M0 -8L6.9 -4L6.9 4L0 8L-6.9 4L-6.9 -4Z" stroke="#0057A3" fill="none" stroke-width="2"></path></g><g transform="translate(370 53)"><path d="M0 -12L10.4 -6L10.4 6L0 12L-10.4 6L-10.4 -6Z" stroke="#0057A3" fill="none" stroke-width="2"></path></g><g transform="translate(534 47)"><path d="M0 -11L9.5 -5.5L9.5 5.5L0 11L-9.5 5.5L-9.5 -5.5Z" stroke="#0057A3" fill="none" stroke-width="2"></path></g><g transform="translate(630 61)"><path d="M0 -8L6.9 -4L6.9 4L0 8L-6.9 4L-6.9 -4Z" stroke="#0057A3" fill="none" stroke-width="2"></path></g><g transform="translate(610 21)"><path d="M0 -11L9.5 -5.5L9.5 5.5L0 11L-9.5 5.5L-9.5 -5.5Z" stroke="#0057A3" fill="none" stroke-width="2"></path></g><g transform="translate(479 57)"><path d="M0 -12L10.4 -6L10.4 6L0 12L-10.4 6L-10.4 -6Z" stroke="#0057A3" fill="none" stroke-width="2"></path></g><g transform="translate(194 45)"><path d="M0 -8L6.9 -4L6.9 4L0 8L-6.9 4L-6.9 -4Z" stroke="#0057A3" fill="none" stroke-width="2"></path></g><g transform="translate(62 61)"><path d="M0 -8L6.9 -4L6.9 4L0 8L-6.9 4L-6.9 -4Z" stroke="#0057A3" fill="none" stroke-width="2"></path></g><g transform="translate(92 46)"><path d="M0 -8L6.9 -4L6.9 4L0 8L-6.9 4L-6.9 -4Z" stroke="#0057A3" fill="none" stroke-width="2"></path></g><g transform="translate(656 28)"><path d="M0 -12L10.4 -6L10.4 6L0 12L-10.4 6L-10.4 -6Z" stroke="#0057A3" fill="none" stroke-width="2"></path></g><g transform="translate(135 36)"><path d="M0 -8L6.9 -4L6.9 4L0 8L-6.9 4L-6.9 -4Z" stroke="#0057A3" fill="none" stroke-width="2"></path></g><g transform="translate(509 32)"><path d="M0 -9L7.8 -4.5L7.8 4.5L0 9L-7.8 4.5L-7.8 -4.5Z" stroke="#0057A3" fill="none" stroke-width="2"></path></g><g transform="translate(168 18)"><path d="M0 -12L10.4 -6L10.4 6L0 12L-10.4 6L-10.4 -6Z" stroke="#0057A3" fill="none" stroke-width="2"></path></g><g transform="translate(221 58)"><path d="M0 -11L9.5 -5.5L9.5 5.5L0 11L-9.5 5.5L-9.5 -5.5Z" stroke="#0057A3" fill="none" stroke-width="2"></path></g><g transform="translate(330 57)"><path d="M0 -8L6.9 -4L6.9 4L0 8L-6.9 4L-6.9 -4Z" stroke="#0057A3" fill="none" stroke-width="2"></path></g></g></svg>