<svg id="visual" viewBox="0 0 900 50" width="100%" height="100%" xmlns="http://www.w3.org/2000/svg" xmlns:xlink="http://www.w3.org/1999/xlink" version="1.1"><rect width="900" height="50" fill="#FFF"></rect><g><g transform="translate(401 25)"><path d="M0 -24L20.7 -12L20.7 12L0 24L-20.7 12L-20.7 -12Z" fill="none" stroke="#0057A3" stroke-width="2"></path></g><g transform="translate(851 25)"><path d="M0 -19L16.5 -9.5L16.5 9.5L0 19L-16.5 9.5L-16.5 -9.5Z" fill="none" stroke="#0057A3" stroke-width="2"></path></g><g transform="translate(543 27)"><path d="M0 -6L5.2 -3L5.2 3L0 6L-5.2 3L-5.2 -3Z" stroke="#0057A3" fill="none" stroke-width="2"></path></g><g transform="translate(97 24)"><path d="M0 -6L5.2 -3L5.2 3L0 6L-5.2 3L-5.2 -3Z" stroke="#0057A3" fill="none" stroke-width="2"></path></g><g transform="translate(694 26)"><path d="M0 -5L4.3 -2.5L4.3 2.5L0 5L-4.3 2.5L-4.3 -2.5Z" stroke="#0057A3" fill="none" stroke-width="2"></path></g><g transform="translate(262 26)"><path d="M0 -8L6.9 -4L6.9 4L0 8L-6.9 4L-6.9 -4Z" stroke="#0057A3" fill="none" stroke-width="2"></path></g><g transform="translate(484 23)"><path d="M0 -16L13.9 -8L13.9 8L0 16L-13.9 8L-13.9 -8Z" stroke="#0057A3" fill="none" stroke-width="2"></path></g><g transform="translate(761 24)"><path d="M0 -13L11.3 -6.5L11.3 6.5L0 13L-11.3 6.5L-11.3 -6.5Z" stroke="#0057A3" fill="none" stroke-width="2"></path></g><g transform="translate(25 26)"><path d="M0 -18L15.6 -9L15.6 9L0 18L-15.6 9L-15.6 -9Z" stroke="#0057A3" fill="none" stroke-width="2"></path></g><g transform="translate(185 26)"><path d="M0 -3L2.6 -1.5L2.6 1.5L0 3L-2.6 1.5L-2.6 -1.5Z" stroke="#0057A3" fill="none" stroke-width="2"></path></g><g transform="translate(602 24)"><path d="M0 -4L3.5 -2L3.5 2L0 4L-3.5 2L-3.5 -2Z" stroke="#0057A3" fill="none" stroke-width="2"></path></g><g transform="translate(333 25)"><path d="M0 -9L7.8 -4.5L7.8 4.5L0 9L-7.8 4.5L-7.8 -4.5Z" stroke="#0057A3" fill="none" stroke-width="2"></path></g></g></svg>