<svg id="visual" viewBox="0 0 900 100" width="900" height="100" xmlns="http://www.w3.org/2000/svg" xmlns:xlink="http://www.w3.org/1999/xlink" version="1.1"><path d="M0 32L13.7 33.5C27.3 35 54.7 38 82 41.5C109.3 45 136.7 49 163.8 51.5C191 54 218 55 245.2 52.2C272.3 49.3 299.7 42.7 327 42C354.3 41.3 381.7 46.7 409 51.2C436.3 55.7 463.7 59.3 491 59.3C518.3 59.3 545.7 55.7 573 53.7C600.3 51.7 627.7 51.3 654.8 53.3C682 55.3 709 59.7 736.2 57.8C763.3 56 790.7 48 818 47.3C845.3 46.7 872.7 53.3 886.3 56.7L900 60L900 0L886.3 0C872.7 0 845.3 0 818 0C790.7 0 763.3 0 736.2 0C709 0 682 0 654.8 0C627.7 0 600.3 0 573 0C545.7 0 518.3 0 491 0C463.7 0 436.3 0 409 0C381.7 0 354.3 0 327 0C299.7 0 272.3 0 245.2 0C218 0 191 0 163.8 0C136.7 0 109.3 0 82 0C54.7 0 27.3 0 13.7 0L0 0Z" fill="#0057a3"></path><path d="M0 79L13.7 78.3C27.3 77.7 54.7 76.3 82 75.2C109.3 74 136.7 73 163.8 75.3C191 77.7 218 83.3 245.2 82.3C272.3 81.3 299.7 73.7 327 73.7C354.3 73.7 381.7 81.3 409 84.2C436.3 87 463.7 85 491 85C518.3 85 545.7 87 573 85.2C600.3 83.3 627.7 77.7 654.8 77.7C682 77.7 709 83.3 736.2 82.3C763.3 81.3 790.7 73.7 818 72C845.3 70.3 872.7 74.7 886.3 76.8L900 79L900 58L886.3 54.7C872.7 51.3 845.3 44.7 818 45.3C790.7 46 763.3 54 736.2 55.8C709 57.7 682 53.3 654.8 51.3C627.7 49.3 600.3 49.7 573 51.7C545.7 53.7 518.3 57.3 491 57.3C463.7 57.3 436.3 53.7 409 49.2C381.7 44.7 354.3 39.3 327 40C299.7 40.7 272.3 47.3 245.2 50.2C218 53 191 52 163.8 49.5C136.7 47 109.3 43 82 39.5C54.7 36 27.3 33 13.7 31.5L0 30Z" fill="#97a6d1"></path><path d="M0 101L13.7 101C27.3 101 54.7 101 82 101C109.3 101 136.7 101 163.8 101C191 101 218 101 245.2 101C272.3 101 299.7 101 327 101C354.3 101 381.7 101 409 101C436.3 101 463.7 101 491 101C518.3 101 545.7 101 573 101C600.3 101 627.7 101 654.8 101C682 101 709 101 736.2 101C763.3 101 790.7 101 818 101C845.3 101 872.7 101 886.3 101L900 101L900 77L886.3 74.8C872.7 72.7 845.3 68.3 818 70C790.7 71.7 763.3 79.3 736.2 80.3C709 81.3 682 75.7 654.8 75.7C627.7 75.7 600.3 81.3 573 83.2C545.7 85 518.3 83 491 83C463.7 83 436.3 85 409 82.2C381.7 79.3 354.3 71.7 327 71.7C299.7 71.7 272.3 79.3 245.2 80.3C218 81.3 191 75.7 163.8 73.3C136.7 71 109.3 72 82 73.2C54.7 74.3 27.3 75.7 13.7 76.3L0 77Z" fill="#ffffff"></path></svg>