<svg id="visual" viewBox="0 0 900 250" width="100%" height="100%" xmlns="http://www.w3.org/2000/svg" xmlns:xlink="http://www.w3.org/1999/xlink" version="1.1"><path d="M0 51L9.3 51C18.7 51 37.3 51 56.2 47.7C75 44.3 94 37.7 112.8 34C131.7 30.3 150.3 29.7 169 33C187.7 36.3 206.3 43.7 225 45.7C243.7 47.7 262.3 44.3 281.2 44.3C300 44.3 319 47.7 337.8 48.5C356.7 49.3 375.3 47.7 394 44.3C412.7 41 431.3 36 450 33.5C468.7 31 487.3 31 506.2 34.3C525 37.7 544 44.3 562.8 44C581.7 43.7 600.3 36.3 619 35.2C637.7 34 656.3 39 675 41.5C693.7 44 712.3 44 731.2 42.7C750 41.3 769 38.7 787.8 39.8C806.7 41 825.3 46 844 48.2C862.7 50.3 881.3 49.7 890.7 49.3L900 49L900 0L890.7 0C881.3 0 862.7 0 844 0C825.3 0 806.7 0 787.8 0C769 0 750 0 731.2 0C712.3 0 693.7 0 675 0C656.3 0 637.7 0 619 0C600.3 0 581.7 0 562.8 0C544 0 525 0 506.2 0C487.3 0 468.7 0 450 0C431.3 0 412.7 0 394 0C375.3 0 356.7 0 337.8 0C319 0 300 0 281.2 0C262.3 0 243.7 0 225 0C206.3 0 187.7 0 169 0C150.3 0 131.7 0 112.8 0C94 0 75 0 56.2 0C37.3 0 18.7 0 9.3 0L0 0Z" fill="#0057a3"></path><path d="M0 106L9.3 104.3C18.7 102.7 37.3 99.3 56.2 93.2C75 87 94 78 112.8 73.5C131.7 69 150.3 69 169 75.7C187.7 82.3 206.3 95.7 225 96.8C243.7 98 262.3 87 281.2 84.5C300 82 319 88 337.8 93.5C356.7 99 375.3 104 394 104.8C412.7 105.7 431.3 102.3 450 99.3C468.7 96.3 487.3 93.7 506.2 95.3C525 97 544 103 562.8 101C581.7 99 600.3 89 619 84C637.7 79 656.3 79 675 79.8C693.7 80.7 712.3 82.3 731.2 82.3C750 82.3 769 80.7 787.8 81.8C806.7 83 825.3 87 844 92C862.7 97 881.3 103 890.7 106L900 109L900 47L890.7 47.3C881.3 47.7 862.7 48.3 844 46.2C825.3 44 806.7 39 787.8 37.8C769 36.7 750 39.3 731.2 40.7C712.3 42 693.7 42 675 39.5C656.3 37 637.7 32 619 33.2C600.3 34.3 581.7 41.7 562.8 42C544 42.3 525 35.7 506.2 32.3C487.3 29 468.7 29 450 31.5C431.3 34 412.7 39 394 42.3C375.3 45.7 356.7 47.3 337.8 46.5C319 45.7 300 42.3 281.2 42.3C262.3 42.3 243.7 45.7 225 43.7C206.3 41.7 187.7 34.3 169 31C150.3 27.7 131.7 28.3 112.8 32C94 35.7 75 42.3 56.2 45.7C37.3 49 18.7 49 9.3 49L0 49Z" fill="#738ac2"></path><path d="M0 184L9.3 185.7C18.7 187.3 37.3 190.7 56.2 184.8C75 179 94 164 112.8 158.5C131.7 153 150.3 157 169 164.8C187.7 172.7 206.3 184.3 225 181C243.7 177.7 262.3 159.3 281.2 154.3C300 149.3 319 157.7 337.8 164.8C356.7 172 375.3 178 394 177.7C412.7 177.3 431.3 170.7 450 166C468.7 161.3 487.3 158.7 506.2 164C525 169.3 544 182.7 562.8 181.8C581.7 181 600.3 166 619 159C637.7 152 656.3 153 675 152.7C693.7 152.3 712.3 150.7 731.2 156.8C750 163 769 177 787.8 184.5C806.7 192 825.3 193 844 190.5C862.7 188 881.3 182 890.7 179L900 176L900 107L890.7 104C881.3 101 862.7 95 844 90C825.3 85 806.7 81 787.8 79.8C769 78.7 750 80.3 731.2 80.3C712.3 80.3 693.7 78.7 675 77.8C656.3 77 637.7 77 619 82C600.3 87 581.7 97 562.8 99C544 101 525 95 506.2 93.3C487.3 91.7 468.7 94.3 450 97.3C431.3 100.3 412.7 103.7 394 102.8C375.3 102 356.7 97 337.8 91.5C319 86 300 80 281.2 82.5C262.3 85 243.7 96 225 94.8C206.3 93.7 187.7 80.3 169 73.7C150.3 67 131.7 67 112.8 71.5C94 76 75 85 56.2 91.2C37.3 97.3 18.7 100.7 9.3 102.3L0 104Z" fill="#bac3e0"></path><path d="M0 251L9.3 251C18.7 251 37.3 251 56.2 251C75 251 94 251 112.8 251C131.7 251 150.3 251 169 251C187.7 251 206.3 251 225 251C243.7 251 262.3 251 281.2 251C300 251 319 251 337.8 251C356.7 251 375.3 251 394 251C412.7 251 431.3 251 450 251C468.7 251 487.3 251 506.2 251C525 251 544 251 562.8 251C581.7 251 600.3 251 619 251C637.7 251 656.3 251 675 251C693.7 251 712.3 251 731.2 251C750 251 769 251 787.8 251C806.7 251 825.3 251 844 251C862.7 251 881.3 251 890.7 251L900 251L900 174L890.7 177C881.3 180 862.7 186 844 188.5C825.3 191 806.7 190 787.8 182.5C769 175 750 161 731.2 154.8C712.3 148.7 693.7 150.3 675 150.7C656.3 151 637.7 150 619 157C600.3 164 581.7 179 562.8 179.8C544 180.7 525 167.3 506.2 162C487.3 156.7 468.7 159.3 450 164C431.3 168.7 412.7 175.3 394 175.7C375.3 176 356.7 170 337.8 162.8C319 155.7 300 147.3 281.2 152.3C262.3 157.3 243.7 175.7 225 179C206.3 182.3 187.7 170.7 169 162.8C150.3 155 131.7 151 112.8 156.5C94 162 75 177 56.2 182.8C37.3 188.7 18.7 185.3 9.3 183.7L0 182Z" fill="#ffffff"></path></svg>