<svg id="visual" viewBox="0 0 900 100" width="100%" height="100%" xmlns="http://www.w3.org/2000/svg" xmlns:xlink="http://www.w3.org/1999/xlink" version="1.1"><rect x="0" y="0" width="900" height="100" fill="#FFF"></rect><path d="M0 67L16.7 67.2C33.3 67.3 66.7 67.7 100 65.5C133.3 63.3 166.7 58.7 200 62C233.3 65.3 266.7 76.7 300 75.7C333.3 74.7 366.7 61.3 400 56.5C433.3 51.7 466.7 55.3 500 60.8C533.3 66.3 566.7 73.7 600 76.8C633.3 80 666.7 79 700 74.2C733.3 69.3 766.7 60.7 800 56.2C833.3 51.7 866.7 51.3 883.3 51.2L900 51L900 101L883.3 101C866.7 101 833.3 101 800 101C766.7 101 733.3 101 700 101C666.7 101 633.3 101 600 101C566.7 101 533.3 101 500 101C466.7 101 433.3 101 400 101C366.7 101 333.3 101 300 101C266.7 101 233.3 101 200 101C166.7 101 133.3 101 100 101C66.7 101 33.3 101 16.7 101L0 101Z" fill="#0057A3" stroke-linecap="round" stroke-linejoin="miter"></path></svg>