<svg id="visual" viewBox="0 0 900 100" width="900" height="100" xmlns="http://www.w3.org/2000/svg" xmlns:xlink="http://www.w3.org/1999/xlink" version="1.1"><rect x="0" y="0" width="900" height="100" fill="#FFF"></rect><path d="M0 72L16.7 74C33.3 76 66.7 80 100 76.2C133.3 72.3 166.7 60.7 200 61.7C233.3 62.7 266.7 76.3 300 76.3C333.3 76.3 366.7 62.7 400 57.2C433.3 51.7 466.7 54.3 500 61.2C533.3 68 566.7 79 600 80.3C633.3 81.7 666.7 73.3 700 66.8C733.3 60.3 766.7 55.7 800 56.5C833.3 57.3 866.7 63.7 883.3 66.8L900 70L900 101L883.3 101C866.7 101 833.3 101 800 101C766.7 101 733.3 101 700 101C666.7 101 633.3 101 600 101C566.7 101 533.3 101 500 101C466.7 101 433.3 101 400 101C366.7 101 333.3 101 300 101C266.7 101 233.3 101 200 101C166.7 101 133.3 101 100 101C66.7 101 33.3 101 16.7 101L0 101Z" fill="#0057A3" stroke-linecap="round" stroke-linejoin="miter"></path></svg>