<svg id="visual" viewBox="0 0 900 100" width="900" height="100" xmlns="http://www.w3.org/2000/svg" xmlns:xlink="http://www.w3.org/1999/xlink" version="1.1"><rect x="0" y="0" width="900" height="100" fill="#0057A3"></rect><path d="M0 83L16.7 79.7C33.3 76.3 66.7 69.7 100 64.2C133.3 58.7 166.7 54.3 200 56.8C233.3 59.3 266.7 68.7 300 69C333.3 69.3 366.7 60.7 400 60.7C433.3 60.7 466.7 69.3 500 68.8C533.3 68.3 566.7 58.7 600 54.5C633.3 50.3 666.7 51.7 700 57.8C733.3 64 766.7 75 800 75C833.3 75 866.7 64 883.3 58.5L900 53L900 101L883.3 101C866.7 101 833.3 101 800 101C766.7 101 733.3 101 700 101C666.7 101 633.3 101 600 101C566.7 101 533.3 101 500 101C466.7 101 433.3 101 400 101C366.7 101 333.3 101 300 101C266.7 101 233.3 101 200 101C166.7 101 133.3 101 100 101C66.7 101 33.3 101 16.7 101L0 101Z" fill="#FFF" stroke-linecap="round" stroke-linejoin="miter"></path></svg>