<svg id="visual" viewBox="0 0 900 100" width="100%" height="100%" xmlns="http://www.w3.org/2000/svg" xmlns:xlink="http://www.w3.org/1999/xlink" version="1.1"><rect x="0" y="0" width="900" height="100" fill="#FFF"></rect><path d="M0 57L15 59.2C30 61.3 60 65.7 90 69.5C120 73.3 150 76.7 180 76.3C210 76 240 72 270 67.8C300 63.7 330 59.3 360 55.5C390 51.7 420 48.3 450 53.3C480 58.3 510 71.7 540 74.2C570 76.7 600 68.3 630 64.3C660 60.3 690 60.7 720 62.3C750 64 780 67 810 65.2C840 63.3 870 56.7 885 53.3L900 50L900 101L885 101C870 101 840 101 810 101C780 101 750 101 720 101C690 101 660 101 630 101C600 101 570 101 540 101C510 101 480 101 450 101C420 101 390 101 360 101C330 101 300 101 270 101C240 101 210 101 180 101C150 101 120 101 90 101C60 101 30 101 15 101L0 101Z" fill="#0057A3" stroke-linecap="round" stroke-linejoin="miter"></path></svg>