<svg id="visual" viewBox="0 0 900 250" width="900" height="250" xmlns="http://www.w3.org/2000/svg" xmlns:xlink="http://www.w3.org/1999/xlink" version="1.1"><rect x="0" y="0" width="900" height="250" fill="#FFF"></rect><path d="M0 101L16.7 110.3C33.3 119.7 66.7 138.3 100 147.7C133.3 157 166.7 157 200 149.5C233.3 142 266.7 127 300 129.7C333.3 132.3 366.7 152.7 400 154.2C433.3 155.7 466.7 138.3 500 138.3C533.3 138.3 566.7 155.7 600 156.8C633.3 158 666.7 143 700 134.7C733.3 126.3 766.7 124.7 800 124.3C833.3 124 866.7 125 883.3 125.5L900 126L900 251L883.3 251C866.7 251 833.3 251 800 251C766.7 251 733.3 251 700 251C666.7 251 633.3 251 600 251C566.7 251 533.3 251 500 251C466.7 251 433.3 251 400 251C366.7 251 333.3 251 300 251C266.7 251 233.3 251 200 251C166.7 251 133.3 251 100 251C66.7 251 33.3 251 16.7 251L0 251Z" fill="#0057A3" stroke-linecap="round" stroke-linejoin="miter"></path></svg>